<svg width="16" height="19" viewBox="0 0 16 19" fill="none" xmlns="http://www.w3.org/2000/svg">
<path fill-rule="evenodd" clip-rule="evenodd" d="M12.4026 2.19995H3.54924C2.9936 2.19995 2.54317 2.64766 2.54317 3.19995V7.79994C2.54317 8.35223 2.9936 8.79994 3.54924 8.79994H12.4026C12.9582 8.79994 13.4087 8.35223 13.4087 7.79994V3.19995C13.4087 2.64766 12.9582 2.19995 12.4026 2.19995ZM3.54924 1.19995C2.43797 1.19995 1.53711 2.09538 1.53711 3.19995V7.79994C1.53711 8.90451 2.43797 9.79994 3.54924 9.79994H12.4026C13.5139 9.79994 14.4147 8.90451 14.4147 7.79994V3.19995C14.4147 2.09538 13.5139 1.19995 12.4026 1.19995H3.54924Z" fill="#CDC5FA"/>
<path fill-rule="evenodd" clip-rule="evenodd" d="M14.1121 12.6001H1.90332C1.20535 12.6001 0.776421 13.3594 1.13978 13.9517L1.34659 14.2889C2.76048 16.5938 5.28025 18.0001 7.99617 18.0001C10.7379 18.0001 13.2777 16.5671 14.6832 14.2272L14.8668 13.9216C15.2165 13.3392 14.7944 12.6001 14.1121 12.6001ZM1.90332 11.6001C0.420141 11.6001 -0.491336 13.2136 0.280795 14.4723L0.48761 14.8095C2.08414 17.4121 4.92941 19.0001 7.99617 19.0001C11.0921 19.0001 13.96 17.382 15.547 14.7398L15.7306 14.4342C16.4807 13.1853 15.5755 11.6001 14.1121 11.6001H1.90332Z" fill="#CDC5FA"/>
<ellipse cx="5.76294" cy="5.2" rx="1.20728" ry="1.2" fill="#CDC5FA"/>
<ellipse cx="10.1897" cy="5.2" rx="1.20728" ry="1.2" fill="#CDC5FA"/>
<path d="M7.1709 0.799999C7.1709 0.358172 7.53124 0 7.97575 0C8.42026 0 8.7806 0.358172 8.7806 0.799999V1.2H7.1709V0.799999Z" fill="#CDC5FA"/>
</svg>
