<svg width="16" height="16" viewBox="0 0 16 16" fill="none" xmlns="http://www.w3.org/2000/svg">
<path fill-rule="evenodd" clip-rule="evenodd" d="M12.3297 1.12088H3.36264C2.12455 1.12088 1.12088 2.12455 1.12088 3.36264V12.3297C1.12088 13.5678 2.12455 14.5714 3.36264 14.5714H12.3297C13.5678 14.5714 14.5714 13.5678 14.5714 12.3297V3.36264C14.5714 2.12455 13.5678 1.12088 12.3297 1.12088ZM3.36264 0C1.5055 0 0 1.5055 0 3.36264V12.3297C0 14.1868 1.5055 15.6923 3.36264 15.6923H12.3297C14.1868 15.6923 15.6923 14.1868 15.6923 12.3297V3.36264C15.6923 1.5055 14.1868 0 12.3297 0H3.36264Z" fill="#CDC5FA"/>
<path fill-rule="evenodd" clip-rule="evenodd" d="M10.0881 3.92264H5.60455C4.98551 3.92264 4.48367 4.42447 4.48367 5.04352C4.48367 5.66256 4.98551 6.1644 5.60455 6.1644H10.0881C10.7071 6.1644 11.2089 5.66256 11.2089 5.04352C11.2089 4.42447 10.7071 3.92264 10.0881 3.92264ZM5.60455 2.80176C4.36646 2.80176 3.36279 3.80543 3.36279 5.04352C3.36279 6.28161 4.36646 7.28527 5.60455 7.28527H10.0881C11.3262 7.28527 12.3298 6.28161 12.3298 5.04352C12.3298 3.80543 11.3262 2.80176 10.0881 2.80176H5.60455Z" fill="#CDC5FA"/>
<path fill-rule="evenodd" clip-rule="evenodd" d="M10.0881 9.52713H5.60455C4.98551 9.52713 4.48367 10.029 4.48367 10.648C4.48367 11.2671 4.98551 11.7689 5.60455 11.7689H10.0881C10.7071 11.7689 11.2089 11.2671 11.2089 10.648C11.2089 10.029 10.7071 9.52713 10.0881 9.52713ZM5.60455 8.40625C4.36646 8.40625 3.36279 9.40992 3.36279 10.648C3.36279 11.8861 4.36646 12.8898 5.60455 12.8898H10.0881C11.3262 12.8898 12.3298 11.8861 12.3298 10.648C12.3298 9.40992 11.3262 8.40625 10.0881 8.40625H5.60455Z" fill="#CDC5FA"/>
</svg>
