<svg width="11" height="14" viewBox="0 0 11 14" fill="none" xmlns="http://www.w3.org/2000/svg">
<path d="M4.61456 3.44358e-06C3.9176 -0.000974138 3.23736 0.206211 2.66695 0.593199C2.09654 0.980186 1.66385 1.52806 1.42809 2.16183C1.19233 2.7956 1.16503 3.48429 1.34994 4.13363C1.53484 4.78297 1.92291 5.36122 2.46101 5.78923V3.26692C2.47073 2.7213 2.70186 2.2012 3.10461 1.81866C3.50736 1.43613 4.0495 1.22177 4.61424 1.22177C5.17898 1.22177 5.72112 1.43613 6.12387 1.81866C6.52662 2.2012 6.75775 2.7213 6.76747 3.26692V5.78923C7.30553 5.36125 7.69358 4.78306 7.8785 4.13378C8.06342 3.4845 8.03618 2.79587 7.8005 2.16212C7.56482 1.52838 7.13223 0.980501 6.56192 0.593465C5.99161 0.20643 5.31146 -0.000846792 4.61456 3.44358e-06ZM4.61456 2.37807C4.37031 2.37807 4.13601 2.47162 3.963 2.63822C3.78998 2.80483 3.69236 3.0309 3.69152 3.26692V9.00745L1.94176 8.15065C1.77237 8.06758 1.58196 8.03296 1.39291 8.05087C1.20386 8.06878 1.02403 8.13847 0.874559 8.25174L0 8.91745L3.7636 12.5542C3.93494 12.7199 4.13839 12.8514 4.36234 12.9411C4.58628 13.0308 4.82632 13.0769 5.06874 13.0769H8.61163C8.85419 13.0775 9.09449 13.0318 9.31878 12.9426C9.54307 12.8533 9.74695 12.7222 9.91877 12.5568C10.0906 12.3913 10.227 12.1948 10.3201 11.9784C10.4132 11.762 10.4613 11.5299 10.4615 11.2955V8.41817C10.462 8.14048 10.362 7.87138 10.1787 7.65748C9.99546 7.44359 9.74054 7.29838 9.45812 7.24701L5.53696 6.53939V3.26692C5.53612 3.03101 5.43858 2.80503 5.26571 2.63844C5.09283 2.47185 4.8587 2.37823 4.61456 2.37807Z" fill="#CDC5FA"/>
</svg>
